<svg xmlns="http://www.w3.org/2000/svg" width="22" height="22" version="1.1">
 <defs>
  <style id="current-color-scheme" type="text/css">
   .ColorScheme-Text { color:#dfdfdf; } .ColorScheme-Highlight { color:#4285f4; }
  </style>
 </defs>
 <circle style="fill:currentColor" class="ColorScheme-Highlight" cx="2" cy="18" r="2"/>
 <path style="fill:currentColor" class="ColorScheme-Text" d="M 12.001,2.0021 A 0.49984,0.49984 0 0 0 11.5,2.4177 L 10.642,8.0093 A 7.9967,5.4979 0 0 0 5.3955,9.5961 1.9992,1.9992 0 0 0 3.9961,8.9916 1.9992,1.9992 0 0 0 1.997,10.994 1.9992,1.9992 0 0 0 3.0746,12.77 7.9967,5.4979 0 0 0 2.9964,13.487 7.9967,5.4979 0 0 0 10.994,19.004 7.9967,5.4979 0 0 0 18.99,13.487 7.9967,5.4979 0 0 0 18.91,12.77 1.9992,1.9992 0 0 0 19.99,10.994 1.9992,1.9992 0 0 0 17.991,8.9916 1.9992,1.9992 0 0 0 16.587,9.5961 7.9967,5.4979 0 0 0 11.647,8.0093 L 12.407,3.0977 15.006,3.7022 A 1.4994,1.4994 0 0 0 16.491,5.0246 1.4994,1.4994 0 0 0 17.991,3.5133 1.4994,1.4994 0 0 0 16.491,2.0021 1.4994,1.4994 0 0 0 15.222,2.7199 L 12.104,2.0399 A 0.49984,0.49984 0 0 0 12.001,2.0021 Z M 8.4943,10.994 A 1.4994,1.4994 0 0 1 9.9938,12.505 1.4994,1.4994 0 0 1 8.4943,14.016 1.4994,1.4994 0 0 1 6.9951,12.505 1.4994,1.4994 0 0 1 8.4943,10.994 Z M 13.492,10.994 A 1.4994,1.4994 0 0 1 14.992,12.505 1.4994,1.4994 0 0 1 13.492,14.016 1.4994,1.4994 0 0 1 11.994,12.505 1.4994,1.4994 0 0 1 13.492,10.994 Z M 14.465,15.981 A 0.50158,0.50158 0 0 1 14.863,16.85 C 14.863,16.85 14.536,17.19 13.912,17.492 13.289,17.757 12.331,18.021 10.981,18.021 9.6398,17.983 8.6994,17.719 8.0825,17.455 7.4659,17.19 7.1379,16.85 7.1379,16.85 A 0.49984,0.49984 0 0 1 7.4477,15.981 0.49984,0.49984 0 0 1 7.4969,15.981 0.49984,0.49984 0 0 1 7.8535,16.17 C 7.8535,16.17 7.9967,16.321 8.4882,16.548 8.9801,16.737 9.786,16.963 11.006,17.001 12.217,17.039 13.005,16.774 13.49,16.548 13.976,16.359 14.119,16.17 14.119,16.17 A 0.50158,0.50158 0 0 1 14.465,15.981 Z"/>
</svg>
